<svg width="33" height="15" viewBox="0 0 33 15" fill="none" xmlns="http://www.w3.org/2000/svg">
<g clip-path="url(#clip0_6_11)">
<path d="M0 1.18V15.02H2.56V14.28H0.919983V1.94001H2.56V1.18H0ZM30.12 1.18V1.94001H31.74V14.3H30.12V15.04H32.66V1.18H30.12Z" fill="white"/>
<path d="M14.6 12.76C13.38 12.76 12.88 10.76 12.36 8.62C12 7.1 11.48 5.02003 10.82 5.02003C10.16 5.02003 9.67999 6.22001 9.23999 7.38001C8.79999 8.54001 8.22002 10.18 7.02002 10.18C6.61245 10.1766 6.21032 10.0856 5.84106 9.91303C5.47181 9.74048 5.14406 9.49048 4.88 9.18C4.68158 8.93506 4.43194 8.73654 4.14862 8.59834C3.8653 8.46013 3.55517 8.38561 3.23999 8.38001C3.19271 8.38001 3.14591 8.3707 3.10223 8.35261C3.05856 8.33452 3.01884 8.30797 2.98541 8.27454C2.95198 8.24111 2.9255 8.20146 2.90741 8.15778C2.88932 8.11411 2.88 8.0673 2.88 8.02003C2.88512 7.92806 2.92528 7.84151 2.99225 7.77827C3.05922 7.71502 3.14788 7.67986 3.23999 7.68C3.64756 7.68336 4.04963 7.77442 4.41888 7.94697C4.78814 8.11952 5.11595 8.36952 5.38 8.68C5.57843 8.92494 5.82807 9.12346 6.11139 9.26167C6.39471 9.39987 6.70484 9.47439 7.02002 9.47999C7.72002 9.47999 8.16002 8.28002 8.58002 7.14002C9.00002 6.00002 9.62001 4.32001 10.82 4.32001C12.02 4.32001 12.52 6.32003 13.04 8.46003C13.42 9.98003 13.92 12.06 14.6 12.06C15.28 12.06 15.8 8.47997 16.14 6.33997C16.76 2.33997 17.2 7.62939e-06 18.38 7.62939e-06C19.56 7.62939e-06 20.08 2.40002 20.62 5.20002C20.98 7.04002 21.52 9.82001 22.18 9.82001C22.84 9.82001 23.32 8.96001 23.76 8.06001C24.2 7.16001 24.8 5.89997 25.96 5.89997C26.3622 5.90621 26.7586 5.99668 27.1238 6.16547C27.4889 6.33426 27.8147 6.57767 28.08 6.88001C28.2805 7.12912 28.5328 7.33154 28.8195 7.47315C29.1062 7.61477 29.4203 7.69219 29.74 7.70002C29.8321 7.69988 29.9208 7.73504 29.9877 7.79829C30.0547 7.86153 30.0949 7.94802 30.1 8.03999C30.1 8.13546 30.0621 8.22705 29.9946 8.29456C29.9271 8.36208 29.8355 8.39997 29.74 8.39997C29.3331 8.39277 28.9322 8.30004 28.5635 8.12775C28.1948 7.95547 27.8665 7.70748 27.6 7.39997C27.3981 7.15901 27.1477 6.96328 26.8652 6.82545C26.5826 6.68762 26.2742 6.61078 25.96 6.59998C25.24 6.59998 24.82 7.45999 24.38 8.35999C23.94 9.25999 23.34 10.52 22.18 10.52C21.02 10.52 20.48 8.10001 19.94 5.32001C19.58 3.48001 19.04 0.70002 18.38 0.70002C17.72 0.70002 17.18 4.30001 16.84 6.44001C16.22 10.36 15.78 12.76 14.6 12.76Z" fill="white"/>
</g>
<defs>
<clipPath id="clip0_6_11">
<rect width="32.66" height="14.92" fill="white"/>
</clipPath>
</defs>
</svg>
