<svg width="32" height="14" viewBox="0 0 32 14" fill="none" xmlns="http://www.w3.org/2000/svg">
<g clip-path="url(#clip0_6_14)">
<path d="M28.56 7.62939e-06V0.739998H30.18V4.24C29.4374 4.24 28.7252 4.53503 28.2001 5.06013C27.675 5.58523 27.38 6.29738 27.38 7.03999C27.38 7.78259 27.675 8.4948 28.2001 9.01991C28.7252 9.54501 29.4374 9.83997 30.18 9.83997V13.12H28.56V13.86H31.18V0.0200272L28.56 7.62939e-06Z" fill="white"/>
<path d="M0 13.86H2.54V13.1H0.92V0.779997H2.54V0.0199966H0V13.86Z" fill="white"/>
<path d="M5.98001 10.22C7.63687 10.22 8.98001 8.87686 8.98001 7.22C8.98001 5.56315 7.63687 4.22 5.98001 4.22C4.32316 4.22 2.98001 5.56315 2.98001 7.22C2.98001 8.87686 4.32316 10.22 5.98001 10.22Z" fill="white"/>
<path d="M11.04 0.419998H10.3V13.62H11.04V0.419998Z" fill="white"/>
<path d="M20.02 5.41999C19.7666 5.0431 19.4241 4.73455 19.0229 4.52174C18.6217 4.30892 18.1741 4.19844 17.72 4.20002C16.9721 4.20002 16.2548 4.49709 15.726 5.02595C15.1971 5.5548 14.9 6.27212 14.9 7.02003C14.9 7.76794 15.1971 8.48519 15.726 9.01405C16.2548 9.5429 16.9721 9.83997 17.72 9.83997C18.1741 9.84155 18.6217 9.73107 19.0229 9.51826C19.4241 9.30544 19.7666 8.99689 20.02 8.62V13.62H20.76V0.419991H20.02V5.41999Z" fill="white"/>
</g>
<defs>
<clipPath id="clip0_6_14">
<rect width="31.08" height="13.86" fill="white"/>
</clipPath>
</defs>
</svg>
